<?xml version="1.0" encoding="UTF-8"?>
<!-- Created with Inkscape (http://www.inkscape.org/) -->
<svg width="83.786mm" height="23.104mm" version="1.1" viewBox="0 0 83.786 23.104" xmlns="http://www.w3.org/2000/svg">
 <g transform="translate(-48.707 -42.143)">
  <text x="42.680874" y="21.781961" fill="none" font-size="3.175px" stroke="#000000" stroke-width=".26458" xml:space="preserve"><tspan x="42.680874" y="21.781961" stroke-width=".26458"/></text>
 </g>
 <g stroke-width="1">
  <g transform="translate(-48.707 -42.143)" fill="#fff" stroke="#сссссс" aria-label="Catch-24">
   <path d="m63.523 55.571v0.80615q-2.0836 2.3192-3.8323 3.8199-1.7363 1.5131-3.3982 2.3192-1.6619 0.81856-3.2122 0.81856-1.3395 0-2.3068-0.5333-0.95498-0.5333-1.4511-1.5627-0.48369-1.017-0.48369-2.4185 0-1.1038 0.34727-2.3316 0.35967-1.2402 1.0294-2.4929 0.66973-1.265 1.6371-2.6045 0.97979-1.3395 2.2944-2.8153 1.3643-1.5255 2.6913-2.6293 1.327-1.1162 2.4061-1.7487 1.079-0.63252 1.9968-0.94258 0.93018-0.31006 1.5379-0.31006 0.62012 0 1.0542 0.29766t0.66973 0.86816q0.23564 0.57051 0.23564 1.3146 0 1.4015-0.95498 3.1254-0.95498 1.7115-2.3812 3.3114-1.4263 1.5999-2.7285 2.6169-1.2898 1.0046-1.8604 1.0046-0.38447 0-0.71934-0.29766-0.32246-0.31006-0.32246-0.69453 0-0.70693 0.74414-1.7115 0.75654-1.0046 1.6371-1.8355 0.89297-0.84336 1.0666-0.84336 0.08682 0 0.08682 0.07441 0 0.11162-0.13643 0.38447-0.12402 0.27285-0.12402 0.33486 0 0.09922 0.07441 0.09922 0.21084 0 1.2154-1.1286 1.0046-1.1286 1.8355-2.4805 0.84336-1.3643 0.84336-2.2324 0-0.35967-0.16123-0.5457-0.14883-0.19844-0.45889-0.19844-0.86816 0-2.6417 1.4139-1.7611 1.4015-3.6215 3.5843-1.8479 2.1704-3.0882 4.4896-1.2402 2.3192-1.2402 4.0804 0 1.017 0.29766 1.6991 0.31006 0.68213 0.89297 1.0542 0.59531 0.37207 1.4263 0.37207 1.7983 0 4.0804-1.4015 2.282-1.4015 5.0229-4.13zm1.3395-2.1704q1.8852-1.7115 3.6587-2.5425t2.7409-0.83096q0.26045 0 0.48369 0.22324 0.22324 0.21084 0.34727 0.49609 0.13643 0.28525 0.13643 0.42168 0 0.22324-0.17363 0.33486-0.17363 0.09922-0.60772 0.24805 0.08682 0.19844 0.22324 0.5085 0.13643 0.31006 0.21084 0.5085 0.07441 0.18604 0.07441 0.33486 0 0.29766-0.60772 1.1162-0.59531 0.80615-0.84336 1.1906-0.23564 0.38447-0.23564 0.94258 0 0.91777 0.84336 0.91777 0.86816 0 2.7161-1.6247v0.75654q-3.1378 3.4851-4.4896 3.4851-0.48369 0-0.69453-0.32246-0.19844-0.31006-0.19844-0.93018 0-0.97978 0.70693-2.8401-1.8107 2.0092-2.6913 2.8649-0.88057 0.84336-1.4511 0.84336-0.27285 0-0.68213-0.47129-0.40928-0.47129-0.73174-1.2154-0.31006-0.75654-0.31006-1.5627 0-0.58291 0.11162-0.96738 0.11162-0.39688 0.43408-0.80615 0.32246-0.40928 1.0294-1.079zm5.9407-1.3643q-3.2246 1.4759-4.6013 2.5053-1.3643 1.0294-1.3643 2.1208 0 0.39688 0.13643 0.65732 0.13642 0.24805 0.37207 0.24805 0.13643 0 0.48369-0.17363 1.3022-0.76894 2.3812-1.9968 1.079-1.2402 2.5921-3.361zm7.2678-2.8525h0.5333q0.65732-1.1782 1.1906-1.6619 0.5333-0.49609 1.2154-0.49609t0.68213 0.31006q0 0.14883-0.5333 0.80615-0.5333 0.65732-0.80615 1.1038 0.42168 0.04961 0.74414 0.08682 0.33486 0.03721 0.5209 0.06201-0.70693 1.3146-1.7735 2.6913-0.34727-0.02481-0.58291-0.03721-0.23564-0.02481-0.48369-0.03721-0.23564-0.02481-0.58291-0.04961-0.66973 1.079-1.1286 1.9348-0.44648 0.84336-0.69453 1.5503-0.23564 0.70693-0.23564 1.3395 0 0.85576 0.68213 0.85576 0.47129 0 1.2278-0.49609 0.76894-0.5085 2.0464-1.5503v0.83096q-3.3486 3.6339-4.9485 3.6339-0.55811 0-0.90537-0.43408-0.33486-0.43408-0.33486-1.1162 0-0.45889 0.18604-1.0914 0.19844-0.63252 0.69453-1.91-0.17363 0.14883-0.33486 0.29766-0.14883 0.13643-0.28525 0.26045-0.12402 0.11162-0.27285 0.24805-0.14883 0.12402-0.29766 0.26045v-0.85576q1.3022-1.0914 3.1502-3.8323-0.18604-0.0124-0.34727-0.0124-0.16123-0.0124-0.38447-0.0124-0.73174 0-1.0914 0.09922-0.14883 0.03721-0.28525 0.08682-0.12402 0.03721-0.17363 0.03721-0.04961 0-0.04961-0.07441 0-0.40928 0.5085-1.2278 0.40928-0.69453 0.76895-1.0294 0.37207-0.33486 0.89297-0.44648 0.5333-0.12402 1.4883-0.12402zm9.463 6.4616v0.83096q-1.327 1.3022-2.1704 2.0216-0.83096 0.71934-1.5627 1.1162-0.71934 0.39688-1.4139 0.39688-0.68213 0-1.2526-0.5333-0.57051-0.5457-0.89297-1.4139-0.32246-0.88057-0.32246-1.8604 0-0.84336 0.37207-1.5007 0.37207-0.65732 1.4387-1.6991 1.265-1.2402 2.344-1.91 1.0914-0.68213 1.7115-0.68213 0.44648 0 0.75654 0.31006 0.31006 0.31006 0.31006 0.78135 0 0.39688-0.40928 1.1286t-0.91777 1.2774q-0.5085 0.5333-0.80615 0.5333-0.32246 0-0.32246-0.34726 0.0124-0.09922 0.0124-0.18604 0.0124-0.08682 0.0124-0.17363 0-0.14883-0.11162-0.16123-0.09922-0.0248-0.24805 0.08682-1.2402 0.86816-1.6991 1.2278-0.45889 0.34726-0.73174 0.70693-0.26045 0.35967-0.26045 0.75654 0 0.73174 0.47129 1.1906t1.2278 0.45889q0.78135 0 1.8728-0.59531 1.1038-0.60772 2.5921-1.7611zm9.2273-0.02481v0.78135q-1.079 1.1038-1.8728 1.8107-0.78135 0.69453-1.3767 1.0542-0.58291 0.35967-0.99219 0.35967-0.96738 0-0.96738-1.141 0-0.91777 0.59531-2.1208 0.60772-1.2154 1.7363-2.8525-0.55811 0.31006-1.0542 0.71934-0.49609 0.39688-0.88057 0.84336-0.38447 0.43408-0.64492 0.74414-0.80615 0.90537-1.5503 1.8604-0.74414 0.94258-1.0046 1.2278-0.26045 0.28525-0.49609 0.28525-0.96738 0-0.96738-2.3812 0-0.78135 0.23564-1.7239 0.23564-0.94258 1.265-2.4929 2.1704-3.2494 3.7083-5.3082 1.5503-2.0712 2.5673-3.1254 1.017-1.0666 1.3643-1.0418 0.43408 0.03721 0.69453 0.17363 0.27285 0.13643 0.27285 0.31006 0 0.31006-0.43408 1.0294-0.42168 0.70693-1.4635 2.22-1.1286 1.5999-1.5999 2.2572-0.47129 0.64492-1.4139 1.848-0.93018 1.1906-1.7115 2.1332-0.76895 0.93018-1.7611 2.0216v1.4883q1.6619-1.8479 2.8773-3.0262 1.2154-1.1782 2.0588-1.7735 0.84336-0.60772 1.2402-0.60772 0.37207 0 0.69453 0.44648 0.32246 0.43408 0.32246 0.71934 0 0.12402-0.12402 0.31006-0.89297 1.0666-1.4263 1.7735-0.5209 0.69453-0.80615 1.2526-0.28525 0.5457-0.28525 0.94258 0 0.58291 0.5581 0.58291 0.59531 0 2.6417-1.5999zm8.3344-3.3858q0.42168-0.09922 0.5085-0.09922 0.0868-0.0124 0.65732 0.09922 0.19844 0.02481 0.32246 0.04961 0.13643 0.02481 0.23565 0.07441 0.11162 0.03721 0.11162 0.08682 0 0.11162-0.66973 0.68213-0.66972 0.5581-1.3394 0.73174-0.42168 0.13643-1.5131 0.23564-1.0914 0.09922-2.4308 0.09922-0.70694 0-1.0666-0.04961-0.34727-0.06201-0.34727-0.26045 0-0.09922 0.17363-0.35967 0.18604-0.27285 0.48369-0.57051 0.83096-0.84336 3.051-0.84336 0.37207 0 1.8231 0.12402z"/>
   <path d="m111.28 56.96h4.3036q1.6371 0 2.6541-0.47129t1.7983-1.5627h0.40928l-1.1906 4.6013h-9.7358l-0.0124-0.5085q0.5581-1.2154 1.3146-2.344 0.75654-1.1286 2.2076-2.8897 0.62012-0.76894 1.0418-1.2898 0.43408-0.5333 0.66973-0.81855 1.2526-1.5875 1.7859-2.7657 0.5457-1.1782 0.5457-2.3812 0-1.017-0.37207-1.8852-0.35967-0.86816-1.0046-1.3519-0.64492-0.49609-1.3891-0.49609-1.5503 0-1.6123 1.9348l-0.0248 0.65732q-0.0496 1.5131-1.1782 1.5131-0.5457 0-0.90537-0.38447-0.35967-0.39688-0.35967-1.017 0-0.88057 0.63252-1.6123 0.63252-0.74414 1.7239-1.1782 1.1038-0.43408 2.3936-0.43408 1.4263 0 2.6045 0.57051 1.1906 0.57051 1.848 1.5875 0.66973 1.0046 0.66973 2.2572 0 0.89297-0.33486 1.6867-0.32246 0.78135-1.0914 1.6619-0.75654 0.86816-1.9968 1.8852l-2.0092 1.6619q-2.3068 1.8852-3.3858 3.3734zm1.1906-13.853q-1.7983 1.0046-1.7983 2.4309 0 0.32246 0.13642 0.5333 0.13643 0.19844 0.35967 0.19844 0.44649 0 0.44649-0.66973 0-0.93018 0.18603-1.4511 0.18604-0.5333 0.66973-1.0418zm5.8539 15.801 0.43409-1.6495q-1.017 0.60772-2.6541 0.60772h-5.5066q-0.31005 0.5581-0.5457 1.0418zm-4.7625-5.1346q1.5255-1.3767 2.8401-2.7533 1.4015-1.4759 1.9348-2.4433 0.5333-0.96738 0.5333-2.034 0-0.99219-0.39688-1.7611-0.38447-0.78135-1.1162-1.2898t-1.6991-0.63252q0.91777 0.5209 1.3891 1.4635 0.48369 0.93018 0.48369 2.2076 0 1.0046-0.35966 1.9844-0.35967 0.97978-1.1286 2.1084-1.0914 1.5751-2.4805 3.1502z"/>
   <path d="m132.36 59.248q0 0.2794-0.4064 0.2794h-1.8288v5.588h-2.1082v-5.588h-6.2738q-0.508 0-0.508-0.3556 0-0.2286 0.6096-1.016l7.5946-9.906q0.4572-0.6096 0.6604-0.6096 0.2286 0 0.2286 0.2286 0 0.1778-1.5748 2.1336-0.8382 1.0414-3.048 3.9878-1.4986 2.0066-2.7686 3.7338-0.2286 0.2794-0.6604 0.8636l-0.2032 0.2794q1.3716 0.0762 2.8448 0.0762h3.0988v-6.6548h2.1082v6.6548l0.9652-0.0254q0.5334-0.0254 0.7366-0.0254 0.2286-0.0254 0.2032-0.0254 0.3302 0 0.3302 0.381z"/>
  </g>
 </g>
</svg>
